<?xml version="1.0" encoding="UTF-8" standalone="no"?>
<!-- Created with Inkscape (http://www.inkscape.org/) -->

<svg
   version="1.1"
   id="svg1"
   width="1248.9424"
   height="438.46295"
   viewBox="0 0 1248.9424 438.46295"
   sodipodi:docname="v914-ning-01.eps"
   inkscape:version="1.3.2 (091e20ef0f, 2023-11-25)"
   xmlns:inkscape="http://www.inkscape.org/namespaces/inkscape"
   xmlns:sodipodi="http://sodipodi.sourceforge.net/DTD/sodipodi-0.dtd"
   xmlns:xlink="http://www.w3.org/1999/xlink"
   xmlns="http://www.w3.org/2000/svg"
   xmlns:svg="http://www.w3.org/2000/svg">
  <defs
     id="defs1">
    <linearGradient
       id="linearGradient29"
       inkscape:collect="always">
      <stop
         style="stop-color:#002b11;stop-opacity:1"
         offset="0"
         id="stop29" />
      <stop
         style="stop-color:#00aa44;stop-opacity:1"
         offset="1"
         id="stop30" />
    </linearGradient>
    <linearGradient
       inkscape:collect="always"
       xlink:href="#linearGradient29"
       id="linearGradient30"
       x1="1963.9581"
       y1="234.95462"
       x2="2575.791"
       y2="-360.59683"
       gradientUnits="userSpaceOnUse" />
  </defs>
  <sodipodi:namedview
     id="namedview1"
     pagecolor="#505050"
     bordercolor="#eeeeee"
     borderopacity="1"
     inkscape:showpageshadow="0"
     inkscape:pageopacity="0"
     inkscape:pagecheckerboard="0"
     inkscape:deskcolor="#505050"
     inkscape:zoom="0.2594198"
     inkscape:cx="2524.8651"
     inkscape:cy="343.07327"
     inkscape:window-width="1920"
     inkscape:window-height="1003"
     inkscape:window-x="0"
     inkscape:window-y="40"
     inkscape:window-maximized="1"
     inkscape:current-layer="g1" />
  <g
     id="g1"
     inkscape:groupmode="layer"
     inkscape:label="1"
     transform="translate(-1929.4692,184.73512)">
    <g
       id="g30">
      <path
         id="path29"
         style="fill:url(#linearGradient30);stroke-width:18.8976"
         d="M 2367.9322,34.496346 A 219.23148,219.23148 0 0 1 2148.7007,253.72782 219.23148,219.23148 0 0 1 1929.4692,34.496346 219.23148,219.23148 0 0 1 2148.7007,-184.73513 219.23148,219.23148 0 0 1 2367.9322,34.496346 Z" />
      <path
         id="path4"
         d="m 2187.0607,113.04145 h -78.5262 l 39.2637,-63.073111 z m 12.4346,-146.124629 90.9584,146.124629 h -88.9181 L 2155.0345,38.341574 Z M 2312.5836,125.3294 2199.4953,-56.336696 2147.7982,26.715997 2096.0999,-56.336706 1984.8177,122.43276 h 14.4749 l 96.8073,-155.515939 44.4609,71.424753 -54.1491,86.987816 h 226.1719"
         style="fill:#ffffff;fill-opacity:1;fill-rule:nonzero;stroke:none;stroke-width:0.118278" />
      <path
         id="path30"
         style="fill:#ffffff;stroke-width:18.8976"
         d="m 2184.0836,-83.52948 a 35.38295,35.38295 0 0 1 -35.3829,35.38295 35.38295,35.38295 0 0 1 -35.383,-35.38295 35.38295,35.38295 0 0 1 35.383,-35.38295 35.38295,35.38295 0 0 1 35.3829,35.38295 z" />
    </g>
    <path
       d="M 2509.8965,-42.442727 V 134.89609 h -25.4907 V -42.442727 h -65.7826 v -22.475707 h 156.7818 v 22.475707 z m 277.6572,80.583635 q 0,44.403227 -26.313,73.731282 -26.313,29.32806 -70.1681,29.32806 -43.3068,0 -69.8939,-28.77987 -26.5871,-29.053963 -26.5871,-75.924036 0,-46.870073 26.5871,-75.649943 26.5871,-29.053963 69.6198,-29.053963 43.8551,0 70.1681,29.053963 26.5871,29.053964 26.5871,77.294507 z m -96.7552,-83.872762 q -31.7949,0 -51.2555,22.749801 -19.4607,22.47570754 -19.4607,59.478397 0,37.002689 19.4607,59.75249 19.7347,22.475706 51.5296,22.475706 31.7949,0 51.2556,-22.475706 19.7348,-22.475707 19.7348,-58.656114 0,-37.82497146 -19.4607,-60.574773 -19.4607,-22.749801 -51.8038,-22.749801 z m 257.6485,-19.18658 h 25.4907 V 75.417691 q 0,30.150339 -21.1052,47.966449 -20.8311,17.81611 -55.9152,17.81611 -35.6322,0 -56.1892,-17.54202 -20.283,-17.81611 -20.283,-48.240539 V -64.918434 h 25.4907 V 75.417691 q 0,21.653425 13.7047,32.617189 13.9788,10.68966 37.2768,10.68966 24.1203,0 37.825,-11.51195 13.7047,-11.511944 13.7047,-31.794899 z M 3139.2163,36.22225 q 8.771,3.837316 14.527,9.045102 6.03,5.207785 8.4969,11.786041 2.7409,6.578256 3.5632,12.33423 0.8223,5.755974 0.8223,13.7047 0,2.466846 -0.2741,7.126444 0,4.659598 0,6.852349 0,11.237854 2.4668,18.912484 2.4669,7.67463 9.5933,12.60833 v 6.30416 h -30.9726 q -5.4819,-12.60833 -5.4819,-32.61719 V 84.462793 q 0,-18.364298 -7.9487,-26.861212 -7.9487,-8.771008 -24.9426,-8.771008 h -65.7825 v 86.065517 h -25.4908 V -64.918434 h 92.0956 q 29.3281,0 44.9514,13.978794 15.8975,13.704699 15.8975,39.469535 0,16.9938274 -7.4006,28.231681 -7.4005,11.237854 -24.1202,19.460674 z m 4.9337,-44.1291333 q 0,-19.7347677 -10.4156,-27.1353057 -10.4156,-7.400538 -28.7799,-7.400538 h -61.6711 v 68.797593 h 61.6711 q 20.283,0 29.6022,-8.22282 9.5933,-8.2228197 9.5933,-26.0389293 z"
       id="text30"
       style="-inkscape-font-specification:'FreeSans, Normal';fill:#003f19;stroke-width:133.243"
       aria-label="TOUR" />
  </g>
</svg>
